solid 
 facet normal  0.000000e+00  0.000000e+00 -1.000000e+00
   outer loop
     vertex  1.793097e+00 -2.514085e+00  0.000000e+00
     vertex  2.093097e+00 -2.514085e+00  0.000000e+00
     vertex  2.093097e+00 -2.609085e+00  0.000000e+00
   endloop
 endfacet
 facet normal  0.000000e+00  0.000000e+00 -1.000000e+00
   outer loop
     vertex  1.793097e+00 -2.514085e+00  0.000000e+00
     vertex  2.093097e+00 -2.609085e+00  0.000000e+00
     vertex  1.793097e+00 -2.609085e+00  0.000000e+00
   endloop
 endfacet
 facet normal  0.000000e+00  1.000000e+00  0.000000e+00
   outer loop
     vertex  1.793097e+00 -2.514085e+00  0.000000e+00
     vertex  2.093097e+00 -2.514085e+00  2.110000e+00
     vertex  2.093097e+00 -2.514085e+00  0.000000e+00
   endloop
 endfacet
 facet normal  0.000000e+00  1.000000e+00 -0.000000e+00
   outer loop
     vertex  1.793097e+00 -2.514085e+00  0.000000e+00
     vertex  1.793097e+00 -2.514085e+00  2.110000e+00
     vertex  2.093097e+00 -2.514085e+00  2.110000e+00
   endloop
 endfacet
 facet normal -1.000000e+00  0.000000e+00 -1.052344e-16
   outer loop
     vertex  1.793097e+00 -2.609085e+00  2.110000e+00
     vertex  1.793097e+00 -2.514085e+00  0.000000e+00
     vertex  1.793097e+00 -2.609085e+00  0.000000e+00
   endloop
 endfacet
 facet normal -1.000000e+00  0.000000e+00 -1.052344e-16
   outer loop
     vertex  1.793097e+00 -2.609085e+00  2.110000e+00
     vertex  1.793097e+00 -2.514085e+00  2.110000e+00
     vertex  1.793097e+00 -2.514085e+00  0.000000e+00
   endloop
 endfacet
 facet normal  0.000000e+00 -1.000000e+00  0.000000e+00
   outer loop
     vertex  1.793097e+00 -2.609085e+00  0.000000e+00
     vertex  2.093097e+00 -2.609085e+00  0.000000e+00
     vertex  2.093097e+00 -2.609085e+00  2.110000e+00
   endloop
 endfacet
 facet normal  0.000000e+00 -1.000000e+00  0.000000e+00
   outer loop
     vertex  1.793097e+00 -2.609085e+00  0.000000e+00
     vertex  2.093097e+00 -2.609085e+00  2.110000e+00
     vertex  1.793097e+00 -2.609085e+00  2.110000e+00
   endloop
 endfacet
 facet normal  1.000000e+00  0.000000e+00  0.000000e+00
   outer loop
     vertex  2.093097e+00 -2.514085e+00  2.110000e+00
     vertex  2.093097e+00 -2.609085e+00  0.000000e+00
     vertex  2.093097e+00 -2.514085e+00  0.000000e+00
   endloop
 endfacet
 facet normal  1.000000e+00  0.000000e+00  0.000000e+00
   outer loop
     vertex  2.093097e+00 -2.514085e+00  2.110000e+00
     vertex  2.093097e+00 -2.609085e+00  2.110000e+00
     vertex  2.093097e+00 -2.609085e+00  0.000000e+00
   endloop
 endfacet
 facet normal  0.000000e+00  0.000000e+00  1.000000e+00
   outer loop
     vertex  2.093097e+00 -2.514085e+00  2.110000e+00
     vertex  1.793097e+00 -2.514085e+00  2.110000e+00
     vertex  1.793097e+00 -2.609085e+00  2.110000e+00
   endloop
 endfacet
 facet normal  0.000000e+00  0.000000e+00  1.000000e+00
   outer loop
     vertex  2.093097e+00 -2.514085e+00  2.110000e+00
     vertex  1.793097e+00 -2.609085e+00  2.110000e+00
     vertex  2.093097e+00 -2.609085e+00  2.110000e+00
   endloop
 endfacet
 facet normal  1.000000e+00  0.000000e+00  0.000000e+00
   outer loop
     vertex  2.093097e+00 -2.514085e+00  3.300000e+00
     vertex  2.093097e+00 -2.609085e+00  2.210000e+00
     vertex  2.093097e+00 -2.514085e+00  2.210000e+00
   endloop
 endfacet
 facet normal  1.000000e+00  0.000000e+00  0.000000e+00
   outer loop
     vertex  2.093097e+00 -2.514085e+00  3.300000e+00
     vertex  2.093097e+00 -2.609085e+00  3.300000e+00
     vertex  2.093097e+00 -2.609085e+00  2.210000e+00
   endloop
 endfacet
 facet normal  0.000000e+00  1.000000e+00  0.000000e+00
   outer loop
     vertex  1.793097e+00 -2.514085e+00  2.210000e+00
     vertex  2.093097e+00 -2.514085e+00  3.300000e+00
     vertex  2.093097e+00 -2.514085e+00  2.210000e+00
   endloop
 endfacet
 facet normal  0.000000e+00  1.000000e+00  0.000000e+00
   outer loop
     vertex  1.793097e+00 -2.514085e+00  2.210000e+00
     vertex  1.793097e+00 -2.514085e+00  3.300000e+00
     vertex  2.093097e+00 -2.514085e+00  3.300000e+00
   endloop
 endfacet
 facet normal -0.000000e+00  0.000000e+00  1.000000e+00
   outer loop
     vertex  1.793097e+00 -2.514085e+00  3.300000e+00
     vertex  2.093097e+00 -2.609085e+00  3.300000e+00
     vertex  2.093097e+00 -2.514085e+00  3.300000e+00
   endloop
 endfacet
 facet normal  0.000000e+00  0.000000e+00  1.000000e+00
   outer loop
     vertex  1.793097e+00 -2.514085e+00  3.300000e+00
     vertex  1.793097e+00 -2.609085e+00  3.300000e+00
     vertex  2.093097e+00 -2.609085e+00  3.300000e+00
   endloop
 endfacet
 facet normal  0.000000e+00 -1.000000e+00  0.000000e+00
   outer loop
     vertex  1.793097e+00 -2.609085e+00  2.210000e+00
     vertex  2.093097e+00 -2.609085e+00  2.210000e+00
     vertex  2.093097e+00 -2.609085e+00  3.300000e+00
   endloop
 endfacet
 facet normal  0.000000e+00 -1.000000e+00  0.000000e+00
   outer loop
     vertex  1.793097e+00 -2.609085e+00  2.210000e+00
     vertex  2.093097e+00 -2.609085e+00  3.300000e+00
     vertex  1.793097e+00 -2.609085e+00  3.300000e+00
   endloop
 endfacet
 facet normal -0.000000e+00  0.000000e+00 -1.000000e+00
   outer loop
     vertex  2.093097e+00 -2.514085e+00  2.210000e+00
     vertex  1.793097e+00 -2.609085e+00  2.210000e+00
     vertex  1.793097e+00 -2.514085e+00  2.210000e+00
   endloop
 endfacet
 facet normal  0.000000e+00 -0.000000e+00 -1.000000e+00
   outer loop
     vertex  2.093097e+00 -2.514085e+00  2.210000e+00
     vertex  2.093097e+00 -2.609085e+00  2.210000e+00
     vertex  1.793097e+00 -2.609085e+00  2.210000e+00
   endloop
 endfacet
 facet normal -1.000000e+00  0.000000e+00  2.037106e-16
   outer loop
     vertex  1.793097e+00 -2.609085e+00  3.300000e+00
     vertex  1.793097e+00 -2.514085e+00  2.210000e+00
     vertex  1.793097e+00 -2.609085e+00  2.210000e+00
   endloop
 endfacet
 facet normal -1.000000e+00  0.000000e+00  2.037106e-16
   outer loop
     vertex  1.793097e+00 -2.609085e+00  3.300000e+00
     vertex  1.793097e+00 -2.514085e+00  3.300000e+00
     vertex  1.793097e+00 -2.514085e+00  2.210000e+00
   endloop
 endfacet
 facet normal  0.000000e+00  1.000000e+00  0.000000e+00
   outer loop
     vertex -2.306903e+00 -2.514085e+00  2.210000e+00
     vertex -1.616903e+00 -2.514085e+00  3.300000e+00
     vertex -1.616903e+00 -2.514085e+00  2.210000e+00
   endloop
 endfacet
 facet normal  0.000000e+00  1.000000e+00  0.000000e+00
   outer loop
     vertex -2.306903e+00 -2.514085e+00  2.210000e+00
     vertex -2.306903e+00 -2.514085e+00  3.300000e+00
     vertex -1.616903e+00 -2.514085e+00  3.300000e+00
   endloop
 endfacet
 facet normal -1.000000e+00  0.000000e+00 -0.000000e+00
   outer loop
     vertex -2.306903e+00 -2.514085e+00  3.300000e+00
     vertex -2.306903e+00 -2.514085e+00  2.210000e+00
     vertex -2.306903e+00 -2.609085e+00  2.210000e+00
   endloop
 endfacet
 facet normal -1.000000e+00 -0.000000e+00  0.000000e+00
   outer loop
     vertex -2.306903e+00 -2.514085e+00  3.300000e+00
     vertex -2.306903e+00 -2.609085e+00  2.210000e+00
     vertex -2.306903e+00 -2.609085e+00  3.300000e+00
   endloop
 endfacet
 facet normal -0.000000e+00  0.000000e+00  1.000000e+00
   outer loop
     vertex -2.306903e+00 -2.514085e+00  3.300000e+00
     vertex -1.616903e+00 -2.609085e+00  3.300000e+00
     vertex -1.616903e+00 -2.514085e+00  3.300000e+00
   endloop
 endfacet
 facet normal  0.000000e+00  0.000000e+00  1.000000e+00
   outer loop
     vertex -2.306903e+00 -2.514085e+00  3.300000e+00
     vertex -2.306903e+00 -2.609085e+00  3.300000e+00
     vertex -1.616903e+00 -2.609085e+00  3.300000e+00
   endloop
 endfacet
 facet normal  1.000000e+00  0.000000e+00  0.000000e+00
   outer loop
     vertex -1.616903e+00 -2.609085e+00  3.300000e+00
     vertex -1.616903e+00 -2.609085e+00  2.210000e+00
     vertex -1.616903e+00 -2.514085e+00  2.210000e+00
   endloop
 endfacet
 facet normal  1.000000e+00 -0.000000e+00  0.000000e+00
   outer loop
     vertex -1.616903e+00 -2.609085e+00  3.300000e+00
     vertex -1.616903e+00 -2.514085e+00  2.210000e+00
     vertex -1.616903e+00 -2.514085e+00  3.300000e+00
   endloop
 endfacet
 facet normal -0.000000e+00  0.000000e+00 -1.000000e+00
   outer loop
     vertex -1.616903e+00 -2.514085e+00  2.210000e+00
     vertex -2.306903e+00 -2.609085e+00  2.210000e+00
     vertex -2.306903e+00 -2.514085e+00  2.210000e+00
   endloop
 endfacet
 facet normal  0.000000e+00 -0.000000e+00 -1.000000e+00
   outer loop
     vertex -1.616903e+00 -2.514085e+00  2.210000e+00
     vertex -1.616903e+00 -2.609085e+00  2.210000e+00
     vertex -2.306903e+00 -2.609085e+00  2.210000e+00
   endloop
 endfacet
 facet normal  0.000000e+00 -1.000000e+00  0.000000e+00
   outer loop
     vertex -2.306903e+00 -2.609085e+00  2.210000e+00
     vertex -1.616903e+00 -2.609085e+00  2.210000e+00
     vertex -1.616903e+00 -2.609085e+00  3.300000e+00
   endloop
 endfacet
 facet normal  0.000000e+00 -1.000000e+00  0.000000e+00
   outer loop
     vertex -2.306903e+00 -2.609085e+00  2.210000e+00
     vertex -1.616903e+00 -2.609085e+00  3.300000e+00
     vertex -2.306903e+00 -2.609085e+00  3.300000e+00
   endloop
 endfacet
 facet normal  0.000000e+00  1.000000e+00  0.000000e+00
   outer loop
     vertex -1.516903e+00 -2.514085e+00  2.210000e+00
     vertex -4.169033e-01 -2.514085e+00  3.300000e+00
     vertex -4.169033e-01 -2.514085e+00  2.210000e+00
   endloop
 endfacet
 facet normal  0.000000e+00  1.000000e+00  0.000000e+00
   outer loop
     vertex -1.516903e+00 -2.514085e+00  2.210000e+00
     vertex -1.516903e+00 -2.514085e+00  3.300000e+00
     vertex -4.169033e-01 -2.514085e+00  3.300000e+00
   endloop
 endfacet
 facet normal -1.000000e+00  0.000000e+00  0.000000e+00
   outer loop
     vertex -1.516903e+00 -2.609085e+00  3.300000e+00
     vertex -1.516903e+00 -2.514085e+00  2.210000e+00
     vertex -1.516903e+00 -2.609085e+00  2.210000e+00
   endloop
 endfacet
 facet normal -1.000000e+00  0.000000e+00  0.000000e+00
   outer loop
     vertex -1.516903e+00 -2.609085e+00  3.300000e+00
     vertex -1.516903e+00 -2.514085e+00  3.300000e+00
     vertex -1.516903e+00 -2.514085e+00  2.210000e+00
   endloop
 endfacet
 facet normal -0.000000e+00  0.000000e+00  1.000000e+00
   outer loop
     vertex -1.516903e+00 -2.514085e+00  3.300000e+00
     vertex -4.169033e-01 -2.609085e+00  3.300000e+00
     vertex -4.169033e-01 -2.514085e+00  3.300000e+00
   endloop
 endfacet
 facet normal  0.000000e+00  0.000000e+00  1.000000e+00
   outer loop
     vertex -1.516903e+00 -2.514085e+00  3.300000e+00
     vertex -1.516903e+00 -2.609085e+00  3.300000e+00
     vertex -4.169033e-01 -2.609085e+00  3.300000e+00
   endloop
 endfacet
 facet normal  1.000000e+00  0.000000e+00  0.000000e+00
   outer loop
     vertex -4.169033e-01 -2.609085e+00  3.300000e+00
     vertex -4.169033e-01 -2.609085e+00  2.210000e+00
     vertex -4.169033e-01 -2.514085e+00  2.210000e+00
   endloop
 endfacet
 facet normal  1.000000e+00 -0.000000e+00  0.000000e+00
   outer loop
     vertex -4.169033e-01 -2.609085e+00  3.300000e+00
     vertex -4.169033e-01 -2.514085e+00  2.210000e+00
     vertex -4.169033e-01 -2.514085e+00  3.300000e+00
   endloop
 endfacet
 facet normal -0.000000e+00  0.000000e+00 -1.000000e+00
   outer loop
     vertex -4.169033e-01 -2.514085e+00  2.210000e+00
     vertex -1.516903e+00 -2.609085e+00  2.210000e+00
     vertex -1.516903e+00 -2.514085e+00  2.210000e+00
   endloop
 endfacet
 facet normal  0.000000e+00 -0.000000e+00 -1.000000e+00
   outer loop
     vertex -4.169033e-01 -2.514085e+00  2.210000e+00
     vertex -4.169033e-01 -2.609085e+00  2.210000e+00
     vertex -1.516903e+00 -2.609085e+00  2.210000e+00
   endloop
 endfacet
 facet normal  0.000000e+00 -1.000000e+00  0.000000e+00
   outer loop
     vertex -1.516903e+00 -2.609085e+00  2.210000e+00
     vertex -4.169033e-01 -2.609085e+00  2.210000e+00
     vertex -4.169033e-01 -2.609085e+00  3.300000e+00
   endloop
 endfacet
 facet normal  0.000000e+00 -1.000000e+00  0.000000e+00
   outer loop
     vertex -1.516903e+00 -2.609085e+00  2.210000e+00
     vertex -4.169033e-01 -2.609085e+00  3.300000e+00
     vertex -1.516903e+00 -2.609085e+00  3.300000e+00
   endloop
 endfacet
 facet normal  0.000000e+00  1.000000e+00  0.000000e+00
   outer loop
     vertex -3.169033e-01 -2.514085e+00  2.210000e+00
     vertex  7.830967e-01 -2.514085e+00  3.300000e+00
     vertex  7.830967e-01 -2.514085e+00  2.210000e+00
   endloop
 endfacet
 facet normal  0.000000e+00  1.000000e+00  0.000000e+00
   outer loop
     vertex -3.169033e-01 -2.514085e+00  2.210000e+00
     vertex -3.169033e-01 -2.514085e+00  3.300000e+00
     vertex  7.830967e-01 -2.514085e+00  3.300000e+00
   endloop
 endfacet
 facet normal -1.000000e+00  0.000000e+00  5.092766e-17
   outer loop
     vertex -3.169033e-01 -2.609085e+00  3.300000e+00
     vertex -3.169033e-01 -2.514085e+00  2.210000e+00
     vertex -3.169033e-01 -2.609085e+00  2.210000e+00
   endloop
 endfacet
 facet normal -1.000000e+00  0.000000e+00  5.092766e-17
   outer loop
     vertex -3.169033e-01 -2.609085e+00  3.300000e+00
     vertex -3.169033e-01 -2.514085e+00  3.300000e+00
     vertex -3.169033e-01 -2.514085e+00  2.210000e+00
   endloop
 endfacet
 facet normal -0.000000e+00  0.000000e+00  1.000000e+00
   outer loop
     vertex -3.169033e-01 -2.514085e+00  3.300000e+00
     vertex  7.830967e-01 -2.609085e+00  3.300000e+00
     vertex  7.830967e-01 -2.514085e+00  3.300000e+00
   endloop
 endfacet
 facet normal  0.000000e+00  0.000000e+00  1.000000e+00
   outer loop
     vertex -3.169033e-01 -2.514085e+00  3.300000e+00
     vertex -3.169033e-01 -2.609085e+00  3.300000e+00
     vertex  7.830967e-01 -2.609085e+00  3.300000e+00
   endloop
 endfacet
 facet normal  1.000000e+00  0.000000e+00  0.000000e+00
   outer loop
     vertex  7.830967e-01 -2.609085e+00  3.300000e+00
     vertex  7.830967e-01 -2.609085e+00  2.210000e+00
     vertex  7.830967e-01 -2.514085e+00  2.210000e+00
   endloop
 endfacet
 facet normal  1.000000e+00 -0.000000e+00  0.000000e+00
   outer loop
     vertex  7.830967e-01 -2.609085e+00  3.300000e+00
     vertex  7.830967e-01 -2.514085e+00  2.210000e+00
     vertex  7.830967e-01 -2.514085e+00  3.300000e+00
   endloop
 endfacet
 facet normal -0.000000e+00  0.000000e+00 -1.000000e+00
   outer loop
     vertex  7.830967e-01 -2.514085e+00  2.210000e+00
     vertex -3.169033e-01 -2.609085e+00  2.210000e+00
     vertex -3.169033e-01 -2.514085e+00  2.210000e+00
   endloop
 endfacet
 facet normal  0.000000e+00 -0.000000e+00 -1.000000e+00
   outer loop
     vertex  7.830967e-01 -2.514085e+00  2.210000e+00
     vertex  7.830967e-01 -2.609085e+00  2.210000e+00
     vertex -3.169033e-01 -2.609085e+00  2.210000e+00
   endloop
 endfacet
 facet normal  0.000000e+00 -1.000000e+00  0.000000e+00
   outer loop
     vertex -3.169033e-01 -2.609085e+00  2.210000e+00
     vertex  7.830967e-01 -2.609085e+00  2.210000e+00
     vertex  7.830967e-01 -2.609085e+00  3.300000e+00
   endloop
 endfacet
 facet normal  0.000000e+00 -1.000000e+00  0.000000e+00
   outer loop
     vertex -3.169033e-01 -2.609085e+00  2.210000e+00
     vertex  7.830967e-01 -2.609085e+00  3.300000e+00
     vertex -3.169033e-01 -2.609085e+00  3.300000e+00
   endloop
 endfacet
 facet normal  0.000000e+00  1.000000e+00  0.000000e+00
   outer loop
     vertex  8.830967e-01 -2.514085e+00  2.210000e+00
     vertex  1.693097e+00 -2.514085e+00  3.300000e+00
     vertex  1.693097e+00 -2.514085e+00  2.210000e+00
   endloop
 endfacet
 facet normal  0.000000e+00  1.000000e+00 -0.000000e+00
   outer loop
     vertex  8.830967e-01 -2.514085e+00  2.210000e+00
     vertex  8.830967e-01 -2.514085e+00  3.300000e+00
     vertex  1.693097e+00 -2.514085e+00  3.300000e+00
   endloop
 endfacet
 facet normal -1.000000e+00  0.000000e+00 -1.018553e-16
   outer loop
     vertex  8.830967e-01 -2.609085e+00  3.300000e+00
     vertex  8.830967e-01 -2.514085e+00  2.210000e+00
     vertex  8.830967e-01 -2.609085e+00  2.210000e+00
   endloop
 endfacet
 facet normal -1.000000e+00  0.000000e+00 -1.018553e-16
   outer loop
     vertex  8.830967e-01 -2.609085e+00  3.300000e+00
     vertex  8.830967e-01 -2.514085e+00  3.300000e+00
     vertex  8.830967e-01 -2.514085e+00  2.210000e+00
   endloop
 endfacet
 facet normal -0.000000e+00  0.000000e+00  1.000000e+00
   outer loop
     vertex  8.830967e-01 -2.514085e+00  3.300000e+00
     vertex  1.693097e+00 -2.609085e+00  3.300000e+00
     vertex  1.693097e+00 -2.514085e+00  3.300000e+00
   endloop
 endfacet
 facet normal  0.000000e+00  0.000000e+00  1.000000e+00
   outer loop
     vertex  8.830967e-01 -2.514085e+00  3.300000e+00
     vertex  8.830967e-01 -2.609085e+00  3.300000e+00
     vertex  1.693097e+00 -2.609085e+00  3.300000e+00
   endloop
 endfacet
 facet normal  1.000000e+00  0.000000e+00  2.037106e-16
   outer loop
     vertex  1.693097e+00 -2.609085e+00  3.300000e+00
     vertex  1.693097e+00 -2.609085e+00  2.210000e+00
     vertex  1.693097e+00 -2.514085e+00  2.210000e+00
   endloop
 endfacet
 facet normal  1.000000e+00 -0.000000e+00  2.037106e-16
   outer loop
     vertex  1.693097e+00 -2.609085e+00  3.300000e+00
     vertex  1.693097e+00 -2.514085e+00  2.210000e+00
     vertex  1.693097e+00 -2.514085e+00  3.300000e+00
   endloop
 endfacet
 facet normal -0.000000e+00  0.000000e+00 -1.000000e+00
   outer loop
     vertex  1.693097e+00 -2.514085e+00  2.210000e+00
     vertex  8.830967e-01 -2.609085e+00  2.210000e+00
     vertex  8.830967e-01 -2.514085e+00  2.210000e+00
   endloop
 endfacet
 facet normal  0.000000e+00 -0.000000e+00 -1.000000e+00
   outer loop
     vertex  1.693097e+00 -2.514085e+00  2.210000e+00
     vertex  1.693097e+00 -2.609085e+00  2.210000e+00
     vertex  8.830967e-01 -2.609085e+00  2.210000e+00
   endloop
 endfacet
 facet normal  0.000000e+00 -1.000000e+00  0.000000e+00
   outer loop
     vertex  8.830967e-01 -2.609085e+00  2.210000e+00
     vertex  1.693097e+00 -2.609085e+00  2.210000e+00
     vertex  1.693097e+00 -2.609085e+00  3.300000e+00
   endloop
 endfacet
 facet normal  0.000000e+00 -1.000000e+00  0.000000e+00
   outer loop
     vertex  8.830967e-01 -2.609085e+00  2.210000e+00
     vertex  1.693097e+00 -2.609085e+00  3.300000e+00
     vertex  8.830967e-01 -2.609085e+00  3.300000e+00
   endloop
 endfacet
 facet normal  1.000000e+00  0.000000e+00 -1.052344e-16
   outer loop
     vertex  7.830967e-01 -2.514085e+00  2.110000e+00
     vertex  7.830967e-01 -2.609085e+00  0.000000e+00
     vertex  7.830967e-01 -2.514085e+00  0.000000e+00
   endloop
 endfacet
 facet normal  1.000000e+00  0.000000e+00 -1.052344e-16
   outer loop
     vertex  7.830967e-01 -2.514085e+00  2.110000e+00
     vertex  7.830967e-01 -2.609085e+00  2.110000e+00
     vertex  7.830967e-01 -2.609085e+00  0.000000e+00
   endloop
 endfacet
 facet normal  0.000000e+00  0.000000e+00 -1.000000e+00
   outer loop
     vertex -3.169033e-01 -2.514085e+00  0.000000e+00
     vertex  7.830967e-01 -2.514085e+00  0.000000e+00
     vertex  7.830967e-01 -2.609085e+00  0.000000e+00
   endloop
 endfacet
 facet normal  0.000000e+00  0.000000e+00 -1.000000e+00
   outer loop
     vertex -3.169033e-01 -2.514085e+00  0.000000e+00
     vertex  7.830967e-01 -2.609085e+00  0.000000e+00
     vertex -3.169033e-01 -2.609085e+00  0.000000e+00
   endloop
 endfacet
 facet normal  0.000000e+00  0.000000e+00  1.000000e+00
   outer loop
     vertex  7.830967e-01 -2.514085e+00  2.110000e+00
     vertex -3.169033e-01 -2.514085e+00  2.110000e+00
     vertex -3.169033e-01 -2.609085e+00  2.110000e+00
   endloop
 endfacet
 facet normal  0.000000e+00  0.000000e+00  1.000000e+00
   outer loop
     vertex  7.830967e-01 -2.514085e+00  2.110000e+00
     vertex -3.169033e-01 -2.609085e+00  2.110000e+00
     vertex  7.830967e-01 -2.609085e+00  2.110000e+00
   endloop
 endfacet
 facet normal  0.000000e+00  1.000000e+00  0.000000e+00
   outer loop
     vertex -3.169033e-01 -2.514085e+00  0.000000e+00
     vertex  7.830967e-01 -2.514085e+00  2.110000e+00
     vertex  7.830967e-01 -2.514085e+00  0.000000e+00
   endloop
 endfacet
 facet normal  0.000000e+00  1.000000e+00 -0.000000e+00
   outer loop
     vertex -3.169033e-01 -2.514085e+00  0.000000e+00
     vertex -3.169033e-01 -2.514085e+00  2.110000e+00
     vertex  7.830967e-01 -2.514085e+00  2.110000e+00
   endloop
 endfacet
 facet normal  0.000000e+00 -1.000000e+00  0.000000e+00
   outer loop
     vertex -3.169033e-01 -2.609085e+00  0.000000e+00
     vertex  7.830967e-01 -2.609085e+00  0.000000e+00
     vertex  7.830967e-01 -2.609085e+00  2.110000e+00
   endloop
 endfacet
 facet normal  0.000000e+00 -1.000000e+00  0.000000e+00
   outer loop
     vertex -3.169033e-01 -2.609085e+00  0.000000e+00
     vertex  7.830967e-01 -2.609085e+00  2.110000e+00
     vertex -3.169033e-01 -2.609085e+00  2.110000e+00
   endloop
 endfacet
 facet normal -1.000000e+00  0.000000e+00 -2.630860e-17
   outer loop
     vertex -3.169033e-01 -2.609085e+00  2.110000e+00
     vertex -3.169033e-01 -2.514085e+00  0.000000e+00
     vertex -3.169033e-01 -2.609085e+00  0.000000e+00
   endloop
 endfacet
 facet normal -1.000000e+00  0.000000e+00 -2.630860e-17
   outer loop
     vertex -3.169033e-01 -2.609085e+00  2.110000e+00
     vertex -3.169033e-01 -2.514085e+00  2.110000e+00
     vertex -3.169033e-01 -2.514085e+00  0.000000e+00
   endloop
 endfacet
 facet normal  0.000000e+00  0.000000e+00 -1.000000e+00
   outer loop
     vertex -1.516903e+00 -2.514085e+00  0.000000e+00
     vertex -4.169033e-01 -2.514085e+00  0.000000e+00
     vertex -4.169033e-01 -2.609085e+00  0.000000e+00
   endloop
 endfacet
 facet normal  0.000000e+00  0.000000e+00 -1.000000e+00
   outer loop
     vertex -1.516903e+00 -2.514085e+00  0.000000e+00
     vertex -4.169033e-01 -2.609085e+00  0.000000e+00
     vertex -1.516903e+00 -2.609085e+00  0.000000e+00
   endloop
 endfacet
 facet normal  0.000000e+00  1.000000e+00  0.000000e+00
   outer loop
     vertex -1.516903e+00 -2.514085e+00  0.000000e+00
     vertex -4.169033e-01 -2.514085e+00  2.110000e+00
     vertex -4.169033e-01 -2.514085e+00  0.000000e+00
   endloop
 endfacet
 facet normal  0.000000e+00  1.000000e+00  0.000000e+00
   outer loop
     vertex -1.516903e+00 -2.514085e+00  0.000000e+00
     vertex -1.516903e+00 -2.514085e+00  2.110000e+00
     vertex -4.169033e-01 -2.514085e+00  2.110000e+00
   endloop
 endfacet
 facet normal -1.000000e+00  0.000000e+00  0.000000e+00
   outer loop
     vertex -1.516903e+00 -2.609085e+00  2.110000e+00
     vertex -1.516903e+00 -2.514085e+00  0.000000e+00
     vertex -1.516903e+00 -2.609085e+00  0.000000e+00
   endloop
 endfacet
 facet normal -1.000000e+00  0.000000e+00  0.000000e+00
   outer loop
     vertex -1.516903e+00 -2.609085e+00  2.110000e+00
     vertex -1.516903e+00 -2.514085e+00  2.110000e+00
     vertex -1.516903e+00 -2.514085e+00  0.000000e+00
   endloop
 endfacet
 facet normal  0.000000e+00 -1.000000e+00  0.000000e+00
   outer loop
     vertex -1.516903e+00 -2.609085e+00  0.000000e+00
     vertex -4.169033e-01 -2.609085e+00  0.000000e+00
     vertex -4.169033e-01 -2.609085e+00  2.110000e+00
   endloop
 endfacet
 facet normal  0.000000e+00 -1.000000e+00  0.000000e+00
   outer loop
     vertex -1.516903e+00 -2.609085e+00  0.000000e+00
     vertex -4.169033e-01 -2.609085e+00  2.110000e+00
     vertex -1.516903e+00 -2.609085e+00  2.110000e+00
   endloop
 endfacet
 facet normal  1.000000e+00  0.000000e+00  0.000000e+00
   outer loop
     vertex -4.169033e-01 -2.609085e+00  2.110000e+00
     vertex -4.169033e-01 -2.609085e+00  0.000000e+00
     vertex -4.169033e-01 -2.514085e+00  0.000000e+00
   endloop
 endfacet
 facet normal  1.000000e+00 -0.000000e+00  0.000000e+00
   outer loop
     vertex -4.169033e-01 -2.609085e+00  2.110000e+00
     vertex -4.169033e-01 -2.514085e+00  0.000000e+00
     vertex -4.169033e-01 -2.514085e+00  2.110000e+00
   endloop
 endfacet
 facet normal  0.000000e+00  0.000000e+00  1.000000e+00
   outer loop
     vertex -4.169033e-01 -2.514085e+00  2.110000e+00
     vertex -1.516903e+00 -2.514085e+00  2.110000e+00
     vertex -1.516903e+00 -2.609085e+00  2.110000e+00
   endloop
 endfacet
 facet normal  0.000000e+00  0.000000e+00  1.000000e+00
   outer loop
     vertex -4.169033e-01 -2.514085e+00  2.110000e+00
     vertex -1.516903e+00 -2.609085e+00  2.110000e+00
     vertex -4.169033e-01 -2.609085e+00  2.110000e+00
   endloop
 endfacet
 facet normal  0.000000e+00  0.000000e+00 -1.000000e+00
   outer loop
     vertex -2.306903e+00 -2.514085e+00  0.000000e+00
     vertex -1.616903e+00 -2.514085e+00  0.000000e+00
     vertex -1.616903e+00 -2.609085e+00  0.000000e+00
   endloop
 endfacet
 facet normal  0.000000e+00  0.000000e+00 -1.000000e+00
   outer loop
     vertex -2.306903e+00 -2.514085e+00  0.000000e+00
     vertex -1.616903e+00 -2.609085e+00  0.000000e+00
     vertex -2.306903e+00 -2.609085e+00  0.000000e+00
   endloop
 endfacet
 facet normal  0.000000e+00  1.000000e+00  0.000000e+00
   outer loop
     vertex -2.306903e+00 -2.514085e+00  0.000000e+00
     vertex -1.616903e+00 -2.514085e+00  2.110000e+00
     vertex -1.616903e+00 -2.514085e+00  0.000000e+00
   endloop
 endfacet
 facet normal  0.000000e+00  1.000000e+00  0.000000e+00
   outer loop
     vertex -2.306903e+00 -2.514085e+00  0.000000e+00
     vertex -2.306903e+00 -2.514085e+00  2.110000e+00
     vertex -1.616903e+00 -2.514085e+00  2.110000e+00
   endloop
 endfacet
 facet normal -1.000000e+00  0.000000e+00 -0.000000e+00
   outer loop
     vertex -2.306903e+00 -2.514085e+00  2.110000e+00
     vertex -2.306903e+00 -2.514085e+00  0.000000e+00
     vertex -2.306903e+00 -2.609085e+00  0.000000e+00
   endloop
 endfacet
 facet normal -1.000000e+00 -0.000000e+00  0.000000e+00
   outer loop
     vertex -2.306903e+00 -2.514085e+00  2.110000e+00
     vertex -2.306903e+00 -2.609085e+00  0.000000e+00
     vertex -2.306903e+00 -2.609085e+00  2.110000e+00
   endloop
 endfacet
 facet normal  0.000000e+00 -1.000000e+00  0.000000e+00
   outer loop
     vertex -2.306903e+00 -2.609085e+00  0.000000e+00
     vertex -1.616903e+00 -2.609085e+00  0.000000e+00
     vertex -1.616903e+00 -2.609085e+00  2.110000e+00
   endloop
 endfacet
 facet normal  0.000000e+00 -1.000000e+00  0.000000e+00
   outer loop
     vertex -2.306903e+00 -2.609085e+00  0.000000e+00
     vertex -1.616903e+00 -2.609085e+00  2.110000e+00
     vertex -2.306903e+00 -2.609085e+00  2.110000e+00
   endloop
 endfacet
 facet normal  1.000000e+00  0.000000e+00  0.000000e+00
   outer loop
     vertex -1.616903e+00 -2.609085e+00  2.110000e+00
     vertex -1.616903e+00 -2.609085e+00  0.000000e+00
     vertex -1.616903e+00 -2.514085e+00  0.000000e+00
   endloop
 endfacet
 facet normal  1.000000e+00 -0.000000e+00  0.000000e+00
   outer loop
     vertex -1.616903e+00 -2.609085e+00  2.110000e+00
     vertex -1.616903e+00 -2.514085e+00  0.000000e+00
     vertex -1.616903e+00 -2.514085e+00  2.110000e+00
   endloop
 endfacet
 facet normal  0.000000e+00  0.000000e+00  1.000000e+00
   outer loop
     vertex -1.616903e+00 -2.514085e+00  2.110000e+00
     vertex -2.306903e+00 -2.514085e+00  2.110000e+00
     vertex -2.306903e+00 -2.609085e+00  2.110000e+00
   endloop
 endfacet
 facet normal  0.000000e+00  0.000000e+00  1.000000e+00
   outer loop
     vertex -1.616903e+00 -2.514085e+00  2.110000e+00
     vertex -2.306903e+00 -2.609085e+00  2.110000e+00
     vertex -1.616903e+00 -2.609085e+00  2.110000e+00
   endloop
 endfacet
endsolid
